<mxfile host="app.diagrams.net" agent="Mozilla/5.0 (Windows NT 10.0; Win64; x64) AppleWebKit/537.36 (KHTML, like Gecko) Chrome/132.0.0.0 Safari/537.36" border="50" scale="3" compressed="false" locked="false" version="26.0.9">
  <diagram name="Blank" id="YmL12bMKpDGza6XwsDPr">
    <mxGraphModel dx="600" dy="323" grid="0" gridSize="10" guides="1" tooltips="1" connect="1" arrows="1" fold="1" page="0" pageScale="1" pageWidth="827" pageHeight="1169" background="none" math="1" shadow="0">
      <root>
        <mxCell id="X5NqExCQtvZxIxQ7pmgY-0" />
        <mxCell id="1" parent="X5NqExCQtvZxIxQ7pmgY-0" />
        <mxCell id="2RsevzLdP4SSxhdmT4-U-3" value="" style="rounded=0;whiteSpace=wrap;html=1;hachureGap=4;fontFamily=Architects Daughter;fontSource=https%3A%2F%2Ffonts.googleapis.com%2Fcss%3Ffamily%3DArchitects%2BDaughter;" vertex="1" parent="1">
          <mxGeometry x="170" y="103" width="508" height="439" as="geometry" />
        </mxCell>
        <mxCell id="2RsevzLdP4SSxhdmT4-U-4" value="Algorithm" style="ellipse;whiteSpace=wrap;html=1;hachureGap=4;fontFamily=Architects Daughter;fontSource=https%3A%2F%2Ffonts.googleapis.com%2Fcss%3Ffamily%3DArchitects%2BDaughter;" vertex="1" parent="1">
          <mxGeometry x="201" y="142" width="57" height="29" as="geometry" />
        </mxCell>
        <mxCell id="2RsevzLdP4SSxhdmT4-U-8" style="edgeStyle=orthogonalEdgeStyle;rounded=0;hachureGap=4;orthogonalLoop=1;jettySize=auto;html=1;exitX=1;exitY=0.5;exitDx=0;exitDy=0;entryX=-0.021;entryY=0.443;entryDx=0;entryDy=0;entryPerimeter=0;fontFamily=Architects Daughter;fontSource=https%3A%2F%2Ffonts.googleapis.com%2Fcss%3Ffamily%3DArchitects%2BDaughter;strokeColor=default;endArrow=none;startFill=0;" edge="1" parent="1" source="2RsevzLdP4SSxhdmT4-U-4">
          <mxGeometry relative="1" as="geometry">
            <mxPoint x="295" y="157" as="targetPoint" />
          </mxGeometry>
        </mxCell>
        <mxCell id="2RsevzLdP4SSxhdmT4-U-9" value="" style="endArrow=none;html=1;rounded=0;hachureGap=4;fontFamily=Architects Daughter;fontSource=https%3A%2F%2Ffonts.googleapis.com%2Fcss%3Ffamily%3DArchitects%2BDaughter;exitX=0.246;exitY=0.692;exitDx=0;exitDy=0;exitPerimeter=0;" edge="1" parent="1">
          <mxGeometry width="50" height="50" relative="1" as="geometry">
            <mxPoint x="294.96799999999996" y="408.7879999999999" as="sourcePoint" />
            <mxPoint x="295" y="157" as="targetPoint" />
          </mxGeometry>
        </mxCell>
        <mxCell id="2RsevzLdP4SSxhdmT4-U-11" value="" style="endArrow=none;html=1;rounded=0;exitX=0.506;exitY=0.256;exitDx=0;exitDy=0;exitPerimeter=0;" edge="1" parent="1">
          <mxGeometry width="50" height="50" relative="1" as="geometry">
            <mxPoint x="364" y="168" as="sourcePoint" />
            <mxPoint x="296.0014046198648" y="168" as="targetPoint" />
          </mxGeometry>
        </mxCell>
        <mxCell id="2RsevzLdP4SSxhdmT4-U-13" value="" style="endArrow=none;html=1;rounded=0;exitX=0.506;exitY=0.256;exitDx=0;exitDy=0;exitPerimeter=0;" edge="1" parent="1">
          <mxGeometry width="50" height="50" relative="1" as="geometry">
            <mxPoint x="363" y="199" as="sourcePoint" />
            <mxPoint x="295.0014046198648" y="199" as="targetPoint" />
          </mxGeometry>
        </mxCell>
        <mxCell id="2RsevzLdP4SSxhdmT4-U-14" value="" style="endArrow=none;html=1;rounded=0;exitX=0.506;exitY=0.256;exitDx=0;exitDy=0;exitPerimeter=0;" edge="1" parent="1">
          <mxGeometry width="50" height="50" relative="1" as="geometry">
            <mxPoint x="362" y="231" as="sourcePoint" />
            <mxPoint x="294.0014046198648" y="231" as="targetPoint" />
          </mxGeometry>
        </mxCell>
        <mxCell id="2RsevzLdP4SSxhdmT4-U-15" value="Definition" style="ellipse;whiteSpace=wrap;html=1;" vertex="1" parent="1">
          <mxGeometry x="364" y="152" width="81" height="30" as="geometry" />
        </mxCell>
        <mxCell id="2RsevzLdP4SSxhdmT4-U-16" value="Types of Algotihtm" style="ellipse;whiteSpace=wrap;html=1;" vertex="1" parent="1">
          <mxGeometry x="364" y="184" width="81" height="30" as="geometry" />
        </mxCell>
        <mxCell id="2RsevzLdP4SSxhdmT4-U-17" value="Parts of Algorithm" style="ellipse;whiteSpace=wrap;html=1;" vertex="1" parent="1">
          <mxGeometry x="364" y="216" width="81" height="30" as="geometry" />
        </mxCell>
        <mxCell id="2RsevzLdP4SSxhdmT4-U-18" style="edgeStyle=orthogonalEdgeStyle;rounded=0;hachureGap=4;orthogonalLoop=1;jettySize=auto;html=1;exitX=1;exitY=0.5;exitDx=0;exitDy=0;entryX=-0.021;entryY=0.443;entryDx=0;entryDy=0;entryPerimeter=0;fontFamily=Architects Daughter;fontSource=https%3A%2F%2Ffonts.googleapis.com%2Fcss%3Ffamily%3DArchitects%2BDaughter;strokeColor=default;endArrow=none;startFill=0;" edge="1" parent="1">
          <mxGeometry relative="1" as="geometry">
            <mxPoint x="445" y="230.71" as="sourcePoint" />
            <mxPoint x="482" y="230.71" as="targetPoint" />
          </mxGeometry>
        </mxCell>
        <mxCell id="2RsevzLdP4SSxhdmT4-U-19" value="Data Structure" style="ellipse;whiteSpace=wrap;html=1;" vertex="1" parent="1">
          <mxGeometry x="531" y="216" width="81" height="30" as="geometry" />
        </mxCell>
        <mxCell id="2RsevzLdP4SSxhdmT4-U-20" value="" style="endArrow=none;html=1;rounded=0;hachureGap=4;fontFamily=Architects Daughter;fontSource=https%3A%2F%2Ffonts.googleapis.com%2Fcss%3Ffamily%3DArchitects%2BDaughter;exitX=0.246;exitY=0.692;exitDx=0;exitDy=0;exitPerimeter=0;" edge="1" parent="1">
          <mxGeometry width="50" height="50" relative="1" as="geometry">
            <mxPoint x="480.99799999999993" y="481.7879999999999" as="sourcePoint" />
            <mxPoint x="481.03" y="230" as="targetPoint" />
          </mxGeometry>
        </mxCell>
        <mxCell id="2RsevzLdP4SSxhdmT4-U-21" value="" style="endArrow=none;html=1;rounded=0;" edge="1" parent="1">
          <mxGeometry width="50" height="50" relative="1" as="geometry">
            <mxPoint x="531" y="231" as="sourcePoint" />
            <mxPoint x="480.0014046198648" y="230.71" as="targetPoint" />
          </mxGeometry>
        </mxCell>
      </root>
    </mxGraphModel>
  </diagram>
</mxfile>
